<svg id="Layer_1" data-name="Layer 1" xmlns="http://www.w3.org/2000/svg" viewBox="0 0 455 320.67"><defs><style>.cls-1{fill:#fff;}</style></defs><title>air-conditioner-w</title><path class="cls-1" d="M425.17,67.17H29.83A29.86,29.86,0,0,0,0,97V249.67a7.5,7.5,0,0,0,7.5,7.5h440a7.5,7.5,0,0,0,7.5-7.5V97a29.86,29.86,0,0,0-29.83-29.83ZM32.5,82.17h390v9.51a9,9,0,0,1-9,9h-372a9,9,0,0,1-9-9V82.17Zm390,122.5H32.5v-1a9,9,0,0,1,9-9h372a9,9,0,0,1,9,9v1Zm-390,10h390v10H32.5Zm0,20h390v7.5H32.5Zm407.5,7.5h-7.5V203.66a19,19,0,0,0-19-19h-372a19,19,0,0,0-19,19v38.51H15V97a14.83,14.83,0,0,1,7.5-12.87v7.56a19,19,0,0,0,19,19h372a19,19,0,0,0,19-19V84.12A14.83,14.83,0,0,1,440,97Z" transform="translate(0 -67.17)"/><path class="cls-1" d="M250.5,164.67h-46a5,5,0,0,0,0,10h46a5,5,0,0,0,0-10Z" transform="translate(0 -67.17)"/><path class="cls-1" d="M401.5,164.67a5,5,0,1,0,3.53,1.46A5,5,0,0,0,401.5,164.67Z" transform="translate(0 -67.17)"/><path class="cls-1" d="M378.5,164.67a5,5,0,1,0,3.53,1.46A5,5,0,0,0,378.5,164.67Z" transform="translate(0 -67.17)"/><path class="cls-1" d="M186.32,289.94A5,5,0,0,0,177.6,285a54.06,54.06,0,0,0,0,52.56,44,44,0,0,1,0,42.78,5,5,0,1,0,8.72,4.89,54.07,54.07,0,0,0,0-52.56,44,44,0,0,1,0-42.78Z" transform="translate(0 -67.17)"/><path class="cls-1" d="M231.86,289.94a5,5,0,0,0-8.72-4.89,54.06,54.06,0,0,0,0,52.56,44,44,0,0,1,0,42.78,5,5,0,1,0,8.72,4.89,54.07,54.07,0,0,0,0-52.56,44,44,0,0,1,0-42.78Z" transform="translate(0 -67.17)"/><path class="cls-1" d="M277.41,289.94a5,5,0,0,0-8.72-4.89,54.06,54.06,0,0,0,0,52.56,44,44,0,0,1,0,42.78,5,5,0,1,0,8.72,4.89,54.06,54.06,0,0,0,0-52.56,44,44,0,0,1,0-42.78Z" transform="translate(0 -67.17)"/></svg>