<?xml version="1.0" encoding="utf-8"?>
<!-- Generator: Adobe Illustrator 21.0.2, SVG Export Plug-In . SVG Version: 6.00 Build 0)  -->
<svg version="1.1" id="Layer_1" xmlns="http://www.w3.org/2000/svg" xmlns:xlink="http://www.w3.org/1999/xlink" x="0px" y="0px"
	 viewBox="0 0 455 455" style="enable-background:new 0 0 455 455;" xml:space="preserve">
<g>
	<path d="M425.2,67.2H29.8C13.4,67.2,0,80.5,0,97v152.7c0,4.1,3.4,7.5,7.5,7.5h440c4.1,0,7.5-3.4,7.5-7.5V97
		C455,80.5,441.6,67.2,425.2,67.2L425.2,67.2z M32.5,82.2h390v9.5c0,5-4,9-9,9h-372c-5,0-9-4-9-9L32.5,82.2L32.5,82.2z M422.5,204.7
		h-390v-1c0-5,4-9,9-9h372c5,0,9,4,9,9L422.5,204.7L422.5,204.7z M32.5,214.7h390v10h-390V214.7z M32.5,234.7h390v7.5h-390V234.7z
		 M440,242.2h-7.5v-38.5c0-10.5-8.5-19-19-19h-372c-10.5,0-19,8.5-19,19v38.5H15V97c0-5.5,3-10.3,7.5-12.9v7.6c0,10.5,8.5,19,19,19
		h372c10.5,0,19-8.5,19-19v-7.6c4.5,2.6,7.5,7.4,7.5,12.9V242.2z"/>
	<path d="M250.5,164.7h-46c-2.8,0-5,2.2-5,5s2.2,5,5,5h46c2.8,0,5-2.2,5-5S253.3,164.7,250.5,164.7z"/>
	<path d="M401.5,164.7c-1.3,0-2.6,0.5-3.5,1.5s-1.5,2.2-1.5,3.5s0.5,2.6,1.5,3.5c0.9,0.9,2.2,1.5,3.5,1.5c1.3,0,2.6-0.5,3.5-1.5
		c0.9-0.9,1.5-2.2,1.5-3.5s-0.5-2.6-1.5-3.5C404.1,165.2,402.8,164.7,401.5,164.7z"/>
	<path d="M378.5,164.7c-1.3,0-2.6,0.5-3.5,1.5s-1.5,2.2-1.5,3.5s0.5,2.6,1.5,3.5s2.2,1.5,3.5,1.5c1.3,0,2.6-0.5,3.5-1.5
		c0.9-0.9,1.5-2.2,1.5-3.5c0-1.3-0.5-2.6-1.5-3.5S379.8,164.7,378.5,164.7z"/>
	<path d="M186.3,289.9c1.4-2.4,0.5-5.5-1.9-6.8c-2.4-1.4-5.5-0.5-6.8,1.9c-9.1,16.2-9.1,36.4,0,52.6c7.4,13.2,7.4,29.6,0,42.8
		c-1.4,2.4-0.5,5.5,1.9,6.8c0.8,0.4,1.6,0.6,2.4,0.6c1.8,0,3.4-0.9,4.4-2.6c9.1-16.2,9.1-36.3,0-52.6
		C178.9,319.5,178.9,303.1,186.3,289.9L186.3,289.9z"/>
	<path d="M231.9,289.9c1.4-2.4,0.5-5.5-1.9-6.8c-2.4-1.4-5.5-0.5-6.8,1.9c-9.1,16.2-9.1,36.4,0,52.6c7.4,13.2,7.4,29.6,0,42.8
		c-1.4,2.4-0.5,5.5,1.9,6.8c0.8,0.4,1.6,0.6,2.4,0.6c1.8,0,3.4-0.9,4.4-2.6c9.1-16.2,9.1-36.3,0-52.6
		C224.5,319.5,224.5,303.1,231.9,289.9L231.9,289.9z"/>
	<path d="M277.4,289.9c1.4-2.4,0.5-5.5-1.9-6.8c-2.4-1.4-5.5-0.5-6.8,1.9c-9.1,16.2-9.1,36.4,0,52.6c7.4,13.2,7.4,29.6,0,42.8
		c-1.4,2.4-0.5,5.5,1.9,6.8c0.8,0.4,1.6,0.6,2.4,0.6c1.8,0,3.4-0.9,4.4-2.6c9.1-16.2,9.1-36.3,0-52.6
		C270,319.5,270,303.1,277.4,289.9L277.4,289.9z"/>
</g>
</svg>
