<?xml version="1.0" encoding="utf-8"?>
<!-- Generator: Adobe Illustrator 21.0.2, SVG Export Plug-In . SVG Version: 6.00 Build 0)  -->
<svg version="1.1" id="Layer_1" xmlns="http://www.w3.org/2000/svg" xmlns:xlink="http://www.w3.org/1999/xlink" x="0px" y="0px"
	 viewBox="0 0 502 502" style="enable-background:new 0 0 502 502;" xml:space="preserve">
<g>
	<g>
		<g>
			<path d="M492,53H10C4.5,53,0,57.5,0,63v200c0,5.5,4.5,10,10,10h272l35,47.3l-10.3,52.9c-19.4,1.7-34.7,18-34.7,37.9
				c0,21,17,38,38,38s38-17,38-38c0-15.1-8.8-28.1-21.6-34.3l6.7-34.7l30.5,41.1c-4.8,6.4-7.7,14.3-7.7,22.8c0,21,17,38,38,38
				s38-17,38-38s-17-38-38-38c-5.1,0-10,1-14.5,2.9l-41.1-55.5l8.2-42.4H492c5.5,0,10-4.5,10-10V63C502,57.5,497.5,53,492,53z
				 M20,253V73h287v180H20z M306.9,273h19.3l-4,20.7L306.9,273z M328,411c0,9.9-8.1,18-18,18s-18-8.1-18-18s8.1-18,18-18
				S328,401.1,328,411z M394,388c9.9,0,18,8.1,18,18s-8.1,18-18,18s-18-8.1-18-18S384.1,388,394,388z M482,253H350.5l30.4-156.1
				c1.1-5.4-2.5-10.7-7.9-11.7c-5.4-1.1-10.7,2.5-11.7,7.9L330.1,253H327V73h155V253z"/>
			<path d="M60,149h128c5.5,0,10-4.5,10-10s-4.5-10-10-10H60c-5.5,0-10,4.5-10,10S54.5,149,60,149z"/>
			<path d="M259,176H60c-5.5,0-10,4.5-10,10s4.5,10,10,10h199c5.5,0,10-4.5,10-10S264.5,176,259,176z"/>
			<path d="M259,129h-33c-5.5,0-10,4.5-10,10s4.5,10,10,10h33c5.5,0,10-4.5,10-10S264.5,129,259,129z"/>
			<path d="M421,235h33c5.5,0,10-4.5,10-10s-4.5-10-10-10h-33c-5.5,0-10,4.5-10,10S415.5,235,421,235z"/>
		</g>
	</g>
</g>
</svg>
