<svg id="Layer_1" data-name="Layer 1" xmlns="http://www.w3.org/2000/svg" viewBox="0 0 512 245.91"><title>delivery-truck</title><path d="M509.47,256.39l-59.39-67.8a10.2,10.2,0,0,0-7.67-3.48H393V143.24a10.2,10.2,0,0,0-10.2-10.2H172.11a10.2,10.2,0,0,0-10.2,10.2V157H63.82a10.2,10.2,0,0,0,0,20.4h98.09V309.61h-59a10.2,10.2,0,0,0,0,20.4h59v10.36a10.2,10.2,0,0,0,10.2,10.2H193.4a38.57,38.57,0,0,0,74.41,0H403.89a38.57,38.57,0,0,0,74.41,0h23.5a10.2,10.2,0,0,0,10.2-10.2V263.11A10.21,10.21,0,0,0,509.47,256.39ZM230.6,358.56a18.18,18.18,0,1,1,18.18-18.18A18.2,18.2,0,0,1,230.6,358.56Zm37.2-28.38a38.57,38.57,0,0,0-74.41,0H182.31V153.44H372.55V330.18Zm173.29,28.38a18.18,18.18,0,1,1,18.18-18.18A18.2,18.2,0,0,1,441.09,358.56Zm50.51-28.38H478.3a38.57,38.57,0,0,0-74.41,0H393V205.51h44.83l53.82,61.44v63.23Z" transform="translate(0 -133.04)"/><path d="M69.26,309.61H63.82a10.2,10.2,0,0,0,0,20.4h5.44a10.2,10.2,0,0,0,0-20.4Z" transform="translate(0 -133.04)"/><path d="M119.5,232.28H10.2a10.2,10.2,0,0,0,0,20.4H119.5a10.2,10.2,0,1,0,0-20.4Z" transform="translate(0 -133.04)"/></svg>