<svg id="Layer_1" data-name="Layer 1" xmlns="http://www.w3.org/2000/svg" viewBox="0 0 438.95 312.4"><defs><style>.cls-1{fill:#fff;}</style></defs><title>gamepad-w</title><path class="cls-1" d="M170.67,175.28h-40.4v-40a8,8,0,0,0-16,0v40H74.67a8,8,0,0,0,0,16h39.6v40a8,8,0,1,0,16,0v-40h40.4a8,8,0,0,0,0-16Z" transform="translate(0 -63.27)"/><path class="cls-1" d="M266.27,167.28l-2.8,2.8a15.94,15.94,0,0,0,0,22.8,17.19,17.19,0,0,0,11.2,4.4,15.79,15.79,0,0,0,11.2-4.8l2.8-2.8a15.94,15.94,0,0,0,0-22.8A15.47,15.47,0,0,0,266.27,167.28Z" transform="translate(0 -63.27)"/><path class="cls-1" d="M307.07,124.48l-2.4,3.2a15.94,15.94,0,0,0,0,22.8,17.19,17.19,0,0,0,11.2,4.4,15.79,15.79,0,0,0,11.2-4.8l2.8-2.8a16.12,16.12,0,1,0-22.8-22.8Z" transform="translate(0 -63.27)"/><path class="cls-1" d="M307.47,209.68l-2.8,2.8a16,16,0,1,0,22.4,22.8l2.8-2.8a15.94,15.94,0,0,0,0-22.8A15.47,15.47,0,0,0,307.47,209.68Z" transform="translate(0 -63.27)"/><path class="cls-1" d="M351.07,167.28l-2.8,2.8a16,16,0,1,0,22.4,22.8l2.8-2.8a15.94,15.94,0,0,0,0-22.8A15.47,15.47,0,0,0,351.07,167.28Z" transform="translate(0 -63.27)"/><path class="cls-1" d="M422.67,144.48l-4.8-20v-.8c-12-36.4-45.6-60.8-83.6-60.4h-6.4a92.94,92.94,0,0,0-24.8,3.6l-43.2,12.8a90.77,90.77,0,0,1-26,3.6h-29.2a90.77,90.77,0,0,1-26-3.6l-43.2-12.8a108.18,108.18,0,0,0-24.8-3.2h-6a88.17,88.17,0,0,0-83.6,60.4v.8l-4.8,20a613,613,0,0,0-16,158l.8,30.4a44.22,44.22,0,0,0,15.2,31.6,43,43,0,0,0,28.8,10.8,16.41,16.41,0,0,0,4.4-.4l9.2-.8a68.12,68.12,0,0,0,53.6-36.4l14.8-28a71.35,71.35,0,0,1,63.6-38.8h64a72.21,72.21,0,0,1,64.8,40.8l11.6,24.4a67.37,67.37,0,0,0,54.4,38l4,.4a44.48,44.48,0,0,0,48.4-42.8l.8-30A601.41,601.41,0,0,0,422.67,144.48Zm0,157.6-.8,30a28.24,28.24,0,0,1-9.6,20.4,27.31,27.31,0,0,1-21.2,6.8l-4-.4c-18-1.6-33.6-12.8-41.6-29.2l-11.6-24.4c-14.4-30-45.6-49.6-79.2-49.6h-64a88,88,0,0,0-78,47.6l-14.8,28a52.34,52.34,0,0,1-40.8,27.6l-9.2.8a27.8,27.8,0,0,1-21.2-6.8,28.24,28.24,0,0,1-9.6-20.4l-.8-30.4a601.2,601.2,0,0,1,15.2-154l4.8-19.6a72,72,0,0,1,68.4-48.8h6a70.93,70.93,0,0,1,20,2.8l43.2,12.8a110.2,110.2,0,0,0,30.8,4.4h29.2a110.2,110.2,0,0,0,30.8-4.4l43.2-12.8a71.69,71.69,0,0,1,20.4-2.8h7.2c30,0,57.6,20,67.6,49.2l4.8,19.6A618,618,0,0,1,422.67,302.08Z" transform="translate(0 -63.27)"/></svg>