<?xml version="1.0" encoding="utf-8"?>
<!-- Generator: Adobe Illustrator 21.0.2, SVG Export Plug-In . SVG Version: 6.00 Build 0)  -->
<svg version="1.1" id="Layer_1" xmlns="http://www.w3.org/2000/svg" xmlns:xlink="http://www.w3.org/1999/xlink" x="0px" y="0px"
	 viewBox="0 0 438.9 438.9" style="enable-background:new 0 0 438.9 438.9;" xml:space="preserve">
<g>
	<g>
		<g>
			<path d="M170.7,175.3h-40.4v-40c0-4.4-3.6-8-8-8s-8,3.6-8,8v40H74.7c-4.4,0-8,3.6-8,8s3.6,8,8,8h39.6v40c0,4.4,3.6,8,8,8
				s8-3.6,8-8v-40h40.4c4.4,0,8-3.6,8-8S175.1,175.3,170.7,175.3z"/>
			<path d="M266.3,167.3l-2.8,2.8c-6.4,6.4-6.4,16.4,0,22.8c3.2,2.8,7.2,4.4,11.2,4.4s8-1.6,11.2-4.8l2.8-2.8
				c6.4-6.4,6.4-16.4,0-22.8C282.3,160.5,272.3,160.9,266.3,167.3z"/>
			<path d="M307.1,124.5l-2.4,3.2c-6.4,6.4-6.4,16.4,0,22.8c3.2,2.8,7.2,4.4,11.2,4.4s8-1.6,11.2-4.8l2.8-2.8
				c6.4-6.4,6.4-16.4,0-22.8C323.5,118.1,313.5,118.1,307.1,124.5z"/>
			<path d="M307.5,209.7l-2.8,2.8c-6.4,6.4-6.4,16.4,0,22.8c3.2,3.2,7.2,4.8,11.2,4.8s8-1.6,11.2-4.8l2.8-2.8
				c6.4-6.4,6.4-16.4,0-22.8C323.9,203.3,313.5,203.3,307.5,209.7z"/>
			<path d="M351.1,167.3l-2.8,2.8c-6.4,6.4-6.4,16.4,0,22.8c3.2,3.2,7.2,4.8,11.2,4.8s8-1.6,11.2-4.8l2.8-2.8
				c6.4-6.4,6.4-16.4,0-22.8C367.5,160.9,357.1,160.9,351.1,167.3z"/>
			<path d="M422.7,144.5l-4.8-20c0-0.4,0-0.4,0-0.8c-12-36.4-45.6-60.8-83.6-60.4h-6.4c-8,0-16,1.2-24.8,3.6l-43.2,12.8
				c-8,2.4-16.8,3.6-26,3.6h-29.2c-9.2,0-18-1.2-26-3.6l-43.2-12.8c-8.4-2-16.8-3.2-24.8-3.2h-6c-38,0-71.6,24.4-83.6,60.4
				c0,0.4,0,0.4,0,0.8l-4.8,20c-12,51.2-17.6,104.4-16,158l0.8,30.4c0.4,12,6,23.6,15.2,31.6c8,7.2,18.4,10.8,28.8,10.8
				c1.6,0,2.8,0,4.4-0.4l9.2-0.8c22.8-2.4,43.2-16,53.6-36.4l14.8-28c12.4-24,36.8-38.8,63.6-38.8h64c27.6,0,52.8,16,64.8,40.8
				l11.6,24.4c10.4,21.6,30.8,35.6,54.4,38l4,0.4c12,1.2,24-2.8,33.2-10.8s14.8-19.6,15.2-32l0.8-30
				C440.3,249.7,435.1,196.5,422.7,144.5z M422.7,302.1l-0.8,30c-0.4,8-3.6,15.2-9.6,20.4s-13.2,7.6-21.2,6.8l-4-0.4
				c-18-1.6-33.6-12.8-41.6-29.2l-11.6-24.4c-14.4-30-45.6-49.6-79.2-49.6h-64c-32.8,0-62.8,18.4-78,47.6l-14.8,28
				c-8,15.2-23.6,26-40.8,27.6l-9.2,0.8c-7.6,0.8-15.2-1.6-21.2-6.8c-6-5.2-9.2-12.4-9.6-20.4l-0.8-30.4c-1.6-52,3.6-104,15.2-154
				l4.8-19.6c10-29.2,37.2-48.8,68.4-48.8h6c6.4,0,13.2,0.8,20,2.8l43.2,12.8c9.6,2.8,20,4.4,30.8,4.4h29.2
				c10.8,0,21.2-1.6,30.8-4.4l43.2-12.8c6.8-2,13.6-2.8,20.4-2.8h6.4c0.4,0,0.4,0,0.8,0c30,0,57.6,20,67.6,49.2l4.8,19.6
				C419.1,198.5,424.3,250.5,422.7,302.1z"/>
		</g>
	</g>
</g>
</svg>
