<svg id="Layer_1" data-name="Layer 1" xmlns="http://www.w3.org/2000/svg" viewBox="0 0 496.75 512"><title>headset</title><path d="M459.07,236.29v-30A203.2,203.2,0,0,0,334.67,19V10a10,10,0,0,0-10-10H187.3a10,10,0,0,0-10,10v9.07A203.1,203.1,0,0,0,52.95,206.29v30a59.81,59.81,0,0,0-45.33,58V356a59.76,59.76,0,0,0,59.7,59.69H76a27.06,27.06,0,0,0,50.51-13.52V248.06A27.07,27.07,0,0,0,99.44,221,27.22,27.22,0,0,0,76,234.52H72.91V206.29A183.07,183.07,0,0,1,180.67,39.39,28.91,28.91,0,0,0,206.2,54.77h99.6a28.89,28.89,0,0,0,25.53-15.41A183.26,183.26,0,0,1,439.1,206.29v28.23H436a27.06,27.06,0,0,0-42.58-5.61,26.9,26.9,0,0,0-7.93,19.15V402.18a27.06,27.06,0,0,0,12.95,23A90.53,90.53,0,0,1,331.35,466a35.73,35.73,0,0,0-34.1-25.23H279a35.67,35.67,0,0,0-35.63,35.63A35.65,35.65,0,0,0,279,512h18.21a35.68,35.68,0,0,0,34.3-26,110.53,110.53,0,0,0,88.26-57.74A27.31,27.31,0,0,0,436,415.7h8.67a59.76,59.76,0,0,0,59.7-59.7V294.24A59.8,59.8,0,0,0,459.07,236.29ZM92.32,248.06h0a7.27,7.27,0,0,1,.15-1.49,7.12,7.12,0,0,1,12-3.54,7.07,7.07,0,0,1,2.08,5V402.17a7.11,7.11,0,1,1-14.23,0V248.06Zm-20,147.67h-5A39.78,39.78,0,0,1,27.59,356V294.23a39.78,39.78,0,0,1,39.73-39.74h5ZM314.7,25.91a8.91,8.91,0,0,1-8.9,8.9H206.2a8.92,8.92,0,0,1-8.92-8.9V20H314.7ZM278.41,492a15.65,15.65,0,0,1-15-15.63,15.67,15.67,0,0,1,15-15.63V492Zm20,0V460.76a15.66,15.66,0,0,1,14.53,15.61A15.67,15.67,0,0,1,298.38,492Zm121.32-89.8h0a7.21,7.21,0,0,1-.16,1.49,7.12,7.12,0,0,1-14.08-1.49V248.06a7.05,7.05,0,0,1,2.07-5,7.13,7.13,0,0,1,12,3.53,7.28,7.28,0,0,1,.15,1.49V402.17ZM484.41,356a39.77,39.77,0,0,1-39.73,39.73h-5V254.49h5a39.78,39.78,0,0,1,39.73,39.75Z" transform="translate(-7.62)"/></svg>