<svg id="Capa_1" data-name="Capa 1" xmlns="http://www.w3.org/2000/svg" viewBox="0 0 612 367.21"><title>laptob</title><g id="Shape_353" data-name="Shape 353"><path d="M61.2,448.8H550.8a20.42,20.42,0,0,0,20.4-20.41V142.79a20.4,20.4,0,0,0-20.4-20.4H61.2A20.4,20.4,0,0,0,40.8,142.8V428.4A20.41,20.41,0,0,0,61.2,448.8ZM61.2,153a10.2,10.2,0,0,1,10.2-10.2H540.6A10.2,10.2,0,0,1,550.8,153V418.2a10.22,10.22,0,0,1-10.2,10.21H71.4A10.22,10.22,0,0,1,61.2,418.2ZM601.8,469.21H10.2a10.2,10.2,0,1,0,0,20.39H601.8a10.2,10.2,0,1,0,0-20.39Z" transform="translate(0 -122.39)"/></g></svg>