<svg id="Layer_1" data-name="Layer 1" xmlns="http://www.w3.org/2000/svg" viewBox="0 0 250.26 401.39"><defs><style>.cls-1{fill:#fff;}</style></defs><title>mouse-w</title><path class="cls-1" d="M200.7,0A125.27,125.27,0,0,0,75.57,125.13V276.27a125.13,125.13,0,0,0,250.26,0V125.13A125.27,125.27,0,0,0,200.7,0ZM310.83,125.13v2a237.08,237.08,0,0,1-105.13,27.06V112.32a23.57,23.57,0,0,0,18.54-23V58a23.57,23.57,0,0,0-18.54-23V15.12A110.26,110.26,0,0,1,310.83,125.13ZM200.7,44.42A13.55,13.55,0,0,1,214.23,58V89.33a13.54,13.54,0,1,1-27.07,0V58A13.55,13.55,0,0,1,200.7,44.42Zm-5-29.31V35a23.57,23.57,0,0,0-18.53,23V89.33a23.57,23.57,0,0,0,18.53,23v41.84A237.06,237.06,0,0,1,90.57,127.1v-2A110.26,110.26,0,0,1,195.69,15.12Zm5,371.28A110.25,110.25,0,0,1,90.57,276.27V138.34a247.28,247.28,0,0,0,110.13,25.88,247.3,247.3,0,0,0,110.13-25.88V276.27A110.25,110.25,0,0,1,200.7,386.4Z" transform="translate(-75.57)"/></svg>