<svg id="Capa_1" data-name="Capa 1" xmlns="http://www.w3.org/2000/svg" viewBox="0 0 333.67 263.63"><defs><style>.cls-1{fill:#fff;}</style></defs><title>photo-camera</title><path class="cls-1" d="M295.1,298.65H38.56A38.6,38.6,0,0,1,0,260.09V103.7A38.6,38.6,0,0,1,38.56,65.14H90.91l4.58-15.46A19,19,0,0,1,114.19,35h105.3a19.39,19.39,0,0,1,18.73,14.74l.12.53,4.18,14.85h52.6a38.6,38.6,0,0,1,38.56,38.56V260.09A38.61,38.61,0,0,1,295.1,298.65ZM38.56,78A25.73,25.73,0,0,0,12.85,103.7V260.09a25.73,25.73,0,0,0,25.71,25.71H295.1a25.73,25.73,0,0,0,25.71-25.71V103.7A25.73,25.73,0,0,0,295.1,78H232.77l-7-25.1a6.46,6.46,0,0,0-6.26-5H114.18a6.38,6.38,0,0,0-6.26,5L100.49,78ZM166.84,259.8a81.57,81.57,0,1,1,81.56-81.56A81.66,81.66,0,0,1,166.84,259.8Zm0-150.29a68.71,68.71,0,1,0,68.7,68.72A68.8,68.8,0,0,0,166.84,109.51Zm120-7.66a11.86,11.86,0,1,0,11.85,11.86A11.86,11.86,0,0,0,286.8,101.85Z" transform="translate(0 -35.02)"/></svg>