<svg id="Capa_1" data-name="Capa 1" xmlns="http://www.w3.org/2000/svg" viewBox="0 0 60 60"><defs><style>.cls-1{fill:#fff;}</style></defs><title>smartphone-w</title><path class="cls-1" d="M42.6,0H17.41A4.41,4.41,0,0,0,13,4.41V55.59A4.41,4.41,0,0,0,17.41,60H42.59A4.41,4.41,0,0,0,47,55.6V4.41A4.41,4.41,0,0,0,42.6,0ZM15,8H45V46H15Zm2.41-6H42.59A2.41,2.41,0,0,1,45,4.41V6H15V4.41A2.41,2.41,0,0,1,17.41,2ZM42.6,58H17.41A2.41,2.41,0,0,1,15,55.6V48H45v7.6A2.41,2.41,0,0,1,42.6,58Z" transform="translate(0)"/><path class="cls-1" d="M30,49a4,4,0,1,0,4,4A4,4,0,0,0,30,49Zm0,6a2,2,0,1,1,2-2A2,2,0,0,1,30,55Z" transform="translate(0)"/><path class="cls-1" d="M26,5h4a1,1,0,0,0,0-2H26a1,1,0,0,0,0,2Z" transform="translate(0)"/><path class="cls-1" d="M33,5h1a1,1,0,0,0,0-2H33a1,1,0,0,0,0,2Z" transform="translate(0)"/><path class="cls-1" d="M56.61,4.57A1,1,0,1,0,55.2,6a9.59,9.59,0,0,1,0,13.55,1,1,0,1,0,1.41,1.41A11.6,11.6,0,0,0,56.61,4.57Z" transform="translate(0)"/><path class="cls-1" d="M52.4,6.84A1,1,0,1,0,51,8.26a6.57,6.57,0,0,1,0,9.28,1,1,0,1,0,1.41,1.41,8.57,8.57,0,0,0,0-12.1Z" transform="translate(0)"/><path class="cls-1" d="M4.8,6A1,1,0,0,0,3.39,4.57a11.6,11.6,0,0,0,0,16.38A1,1,0,0,0,4.8,19.53,9.59,9.59,0,0,1,4.8,6Z" transform="translate(0)"/><path class="cls-1" d="M9,6.57a1,1,0,0,0-1.41,0,8.57,8.57,0,0,0,0,12.11A1,1,0,0,0,9,17.26,6.57,6.57,0,0,1,9,8,1,1,0,0,0,9,6.57Z" transform="translate(0)"/></svg>