<svg id="Capa_1" data-name="Capa 1" xmlns="http://www.w3.org/2000/svg" viewBox="0 0 612 612.85"><defs><style>.cls-1{fill:#fff;}</style></defs><title>update-arrows_w</title><path class="cls-1" d="M600.48,221.79c-14.43-50.5-40.14-94.33-77.94-132.13a300.48,300.48,0,0,0-100-66.57C385,7.84,346.58,0,306.78,0V37.47c69.91,0,138.93,27,190,78.28A264.15,264.15,0,0,1,564.7,231.16c12.55,43.87,14.38,88,4.68,132.47A261.77,261.77,0,0,1,509.83,482l-52.18-51.18V558.33l130.13,2-52.18-52.18Q587.78,448.93,604.84,373A301.45,301.45,0,0,0,600.48,221.79Z" transform="translate(-0.43)"/><path class="cls-1" d="M47.85,382A267.44,267.44,0,0,1,43.5,249.56,263.58,263.58,0,0,1,103.38,130.8l52.18,51.85V54.53L25.44,53.19l51.85,51.52Q25.11,163.92,8,239.85a301.82,301.82,0,0,0,4.35,151.54c14.34,50.2,40.14,94,77.95,131.81a300.35,300.35,0,0,0,100,66.57,306.59,306.59,0,0,0,116.42,23.08v-36.8a267,267,0,0,1-190.35-78.94C83.54,464.09,60.41,425.9,47.85,382Z" transform="translate(-0.43)"/></svg>