<?xml version="1.0" encoding="utf-8"?>
<!-- Generator: Adobe Illustrator 21.0.2, SVG Export Plug-In . SVG Version: 6.00 Build 0)  -->
<svg version="1.1" id="Capa_1" xmlns="http://www.w3.org/2000/svg" xmlns:xlink="http://www.w3.org/1999/xlink" x="0px" y="0px"
	 viewBox="0 0 512 512" style="enable-background:new 0 0 512 512;" xml:space="preserve">
<g>
	<path d="M400,104h16c4.4,0,8-3.6,8-8s-3.6-8-8-8h-16c-4.4,0-8,3.6-8,8S395.6,104,400,104z"/>
	<path d="M40,104h328c4.4,0,8-3.6,8-8s-3.6-8-8-8H40c-4.4,0-8,3.6-8,8S35.6,104,40,104z"/>
	<path d="M496,233.4V160V96c0-22.1-17.9-40-40-40H40C17.9,56,0,73.9,0,96v320c0,22.1,17.9,40,40,40h416c22.1,0,40-17.9,40-40v-73.4
		c9.3-3.3,16-12.2,16-22.6v-64C512,245.6,505.3,236.7,496,233.4z M40,72h416c13.2,0,24,10.8,24,24v0c-6.7-5-15-8-24-8h-8
		c-4.4,0-8,3.6-8,8s3.6,8,8,8h8c13.2,0,24,10.8,24,24v0c-6.7-5-15-8-24-8H40c-13.2,0-24-10.8-24-24S26.8,72,40,72z M456,440H40
		c-13.2,0-24-10.8-24-24V128c6.7,5,15,8,24,8h416c13.2,0,24,10.8,24,24v72h-96c-17.6,0-32,14.4-32,32v48c0,17.6,14.4,32,32,32h96v72
		C480,429.2,469.2,440,456,440z M496,320c0,4.4-3.6,8-8,8H384c-8.8,0-16-7.2-16-16v-48c0-8.8,7.2-16,16-16h103.9c0,0,0.1,0,0.1,0
		c0,0,0,0,0.1,0c4.4,0,7.9,3.6,7.9,8V320z"/>
	<path d="M432,280c-4.4,0-8,3.6-8,8c0,4.4-3.6,8-8,8s-8-3.6-8-8s3.6-8,8-8c4.4,0,8-3.6,8-8s-3.6-8-8-8c-13.2,0-24,10.8-24,24
		s10.8,24,24,24s24-10.8,24-24C440,283.6,436.4,280,432,280z"/>
</g>
</svg>
