<?xml version="1.0" encoding="utf-8"?>
<!-- Generator: Adobe Illustrator 21.0.2, SVG Export Plug-In . SVG Version: 6.00 Build 0)  -->
<svg version="1.1" id="Layer_1" xmlns="http://www.w3.org/2000/svg" xmlns:xlink="http://www.w3.org/1999/xlink" x="0px" y="0px"
	 viewBox="0 0 512 512" style="enable-background:new 0 0 512 512;" xml:space="preserve">
<g>
	<g>
		<g>
			<path d="M434.6,0H77.5c-18.7,0-34,15.2-34,34v146h15.2V34c0-10.3,8.4-18.8,18.8-18.8h357.1c10.3,0,18.8,8.4,18.8,18.8v444.1
				c0,10.3-8.4,18.8-18.8,18.8H77.5c-10.3,0-18.8-8.4-18.8-18.8V200.3H43.5v277.8c0,18.7,15.2,34,34,34h357.1c18.7,0,34-15.2,34-34
				V34C468.5,15.2,453.3,0,434.6,0z"/>
			<path d="M109.5,308.2c0,80.8,65.7,146.5,146.5,146.5S402.5,389,402.5,308.2S336.8,161.8,256,161.8S109.5,227.5,109.5,308.2z
				 M387.3,308.2c0,72.4-58.9,131.3-131.3,131.3s-131.3-58.9-131.3-131.3S183.6,177,256,177S387.3,235.9,387.3,308.2z"/>
			<path d="M141,308.2c0,63.4,51.6,115,115,115s115-51.6,115-115c0-63.4-51.6-115-115-115S141,244.8,141,308.2z M355.8,308.2
				c0,55-44.8,99.8-99.8,99.8s-99.8-44.8-99.8-99.8s44.8-99.8,99.8-99.8S355.8,253.2,355.8,308.2z"/>
			<rect x="201.5" y="256.9" transform="matrix(0.7071 -0.7071 0.7071 0.7071 -114.0678 253.632)" width="95.3" height="15.2"/>
			<rect x="173.2" y="314.4" transform="matrix(0.7071 -0.7071 0.7071 0.7071 -171.6027 229.7994)" width="36.8" height="15.2"/>
			<rect x="207.6" y="326" transform="matrix(0.7071 -0.7071 0.7071 0.7071 -153.4623 296.637)" width="147.4" height="15.2"/>
			<polygon points="71.4,119.7 440.7,119.7 440.7,104.5 228.1,104.5 228.1,27.9 212.9,27.9 212.9,104.5 71.4,104.5 			"/>
			<path d="M258.4,42.6v46.6h103.8V42.6H258.4z M347,74h-73.3V57.8H347V74z"/>
			<rect x="109.7" y="44.6" width="18.2" height="15.2"/>
			<rect x="140.8" y="44.6" width="18.2" height="15.2"/>
			<rect x="171.9" y="44.6" width="18.2" height="15.2"/>
			<rect x="109.7" y="72" width="18.2" height="15.2"/>
			<rect x="140.8" y="72" width="18.2" height="15.2"/>
			<rect x="171.9" y="72" width="18.2" height="15.2"/>
		</g>
	</g>
</g>
</svg>
