<svg id="Layer_1" data-name="Layer 1" xmlns="http://www.w3.org/2000/svg" viewBox="0 0 425.05 512.03"><defs><style>.cls-1{fill:#fff;}</style></defs><title>washing-machine-w</title><path class="cls-1" d="M434.58,0H77.46a34,34,0,0,0-34,34V180H58.7V34A18.78,18.78,0,0,1,77.46,15.21H434.58A18.78,18.78,0,0,1,453.33,34v444.1a18.78,18.78,0,0,1-18.76,18.76H77.46A18.78,18.78,0,0,1,58.7,478.07V200.25H43.49V478.07a34,34,0,0,0,34,34H434.57a34,34,0,0,0,34-34V34A34,34,0,0,0,434.58,0Z" transform="translate(-43.49)"/><path class="cls-1" d="M109.55,308.25c0,80.76,65.7,146.47,146.47,146.47S402.48,389,402.48,308.25,336.78,161.78,256,161.78,109.55,227.49,109.55,308.25Zm277.72,0c0,72.38-58.88,131.26-131.26,131.26S124.76,380.62,124.76,308.25,183.64,177,256,177,387.27,235.87,387.27,308.25Z" transform="translate(-43.49)"/><path class="cls-1" d="M141,308.25a115,115,0,1,0,115-115A115.15,115.15,0,0,0,141,308.25Zm214.83,0A99.81,99.81,0,1,1,256,208.44,99.92,99.92,0,0,1,355.83,308.25Z" transform="translate(-43.49)"/><rect class="cls-1" x="201.46" y="256.9" width="95.34" height="15.21" transform="translate(-157.56 253.63) rotate(-45)"/><rect class="cls-1" x="173.17" y="314.44" width="36.83" height="15.21" transform="translate(-215.09 229.8) rotate(-45)"/><rect class="cls-1" x="207.62" y="325.96" width="147.44" height="15.21" transform="translate(-196.95 296.64) rotate(-45)"/><polygon class="cls-1" points="27.88 119.67 397.17 119.67 397.17 104.46 184.65 104.46 184.65 27.88 169.44 27.88 169.44 104.46 27.88 104.46 27.88 119.67"/><path class="cls-1" d="M258.39,42.6V89.25H362.16V42.6ZM347,74H273.6V57.81H347Z" transform="translate(-43.49)"/><rect class="cls-1" x="66.19" y="44.64" width="18.25" height="15.21"/><rect class="cls-1" x="97.28" y="44.64" width="18.25" height="15.21"/><rect class="cls-1" x="128.37" y="44.64" width="18.25" height="15.21"/><rect class="cls-1" x="66.19" y="72.01" width="18.25" height="15.21"/><rect class="cls-1" x="97.28" y="72.01" width="18.25" height="15.21"/><rect class="cls-1" x="128.37" y="72.01" width="18.25" height="15.21"/></svg>